# xmcd
# 
# Track frame offsets:
#     150
#     22713
#     38215
#     58800
#     77805
#     96435
#     114190
#     144715
#     161850
#     182339
#     200245
#     217550
#     230150
#     240677
#     252882
#     274200
#     293536
# 
# Disc length: 4284
# 
# Revision: 2
# Processed by: cddbd v1.5.2PL0 Copyright (c) Steve Scherf et al.
# Submitted via: fre:ac v1.0.31
# 
DISCID=ef10ba11
DTITLE=Blues - Blind Pig Records - 40th Anniversary Collection Disc 2
DYEAR=2017
DGENRE=Blues
TTITLE0=Muddy Waters - Got My Mojo Working (Live)
TTITLE1=Big Bill Marganfield with Taj Mahal - You're Gonna Miss Me
TTITLE2=Webb Wilder and The Bearnecks - Human Cannonball (Live)
TTITLE3=Tommy Castro - It's That Time Again
TTITLE4=Deanna Bogart - In The Rain
TTITLE5=The Cash Box Kings - Baby Without You
TTITLE6=Luther Allison - Let's Try Again
TTITLE7=Smokin' Joe Kubek and Bnois King - Diamond Eyes
TTITLE8=Zac Harmon - Raising Hell
TTITLE9=Studebaker John And The Hawks - Blue Feelin'
TTITLE10=Rod Piazza And The Mighty Flyers - Frankenbop
TTITLE11=Mitch Woods And His Rocket 88's - Chicken Shack Boogie
TTITLE12=Billy Branch And The Sons Of Blues - Back Alley Cat
TTITLE13=Andy T - Nick Nixon Band - Shut The Front Door
TTITLE14=Southern Hospitality - Southern Livin'
TTITLE15=Hubert Sumlin with James Cotton - Sitting On Top Of The World
TTITLE16=Otis Clay - When The Gates Swing Open
EXTD=YEAR: 2017
EXTT0=
EXTT1=
EXTT2=
EXTT3=
EXTT4=
EXTT5=
EXTT6=
EXTT7=
EXTT8=
EXTT9=
EXTT10=
EXTT11=
EXTT12=
EXTT13=
EXTT14=
EXTT15=
EXTT16=
PLAYORDER=
